<svg xmlns="http://www.w3.org/2000/svg" xmlns:xlink="http://www.w3.org/1999/xlink" width="250" height="250" viewBox="0 0 250 250">
  <defs>
    <filter id="Icon_ionic-ios-pin" x="51.232" y="11.972" width="147.535" height="216.883" filterUnits="userSpaceOnUse">
      <feOffset dy="3" input="SourceAlpha"/>
      <feGaussianBlur stdDeviation="3" result="blur"/>
      <feFlood flood-opacity="0.161"/>
      <feComposite operator="in" in2="blur"/>
      <feComposite in="SourceGraphic"/>
    </filter>
  </defs>
  <g id="logo-app" transform="translate(-2712.768 1792)">
    <path id="Path_812" data-name="Path 812" d="M0,0H250V250H0Z" transform="translate(2712.768 -1792)" fill="#fff"/>
    <g transform="matrix(1, 0, 0, 1, 2712.77, -1792)" filter="url(#Icon_ionic-ios-pin)">
      <path id="Icon_ionic-ios-pin-2" data-name="Icon ionic-ios-pin" d="M63.061,196.712A63.162,63.162,0,0,1,0,133.49C0,84.312,63.061,0,63.061,0s63.061,84.312,63.061,133.49A63.162,63.162,0,0,1,63.061,196.712Zm0-90.27c-11.342,0-20.539,9.93-20.539,22.177s9.2,22.177,20.539,22.177S83.6,140.867,83.6,128.619,74.4,106.442,63.061,106.442Z" transform="translate(186.33 216.85) rotate(-179)" fill="#d81623"/>
    </g>
  </g>
</svg>
